<svg width="121" height="68" viewBox="0 0 121 68" fill="none" xmlns="http://www.w3.org/2000/svg">
<path fill-rule="evenodd" clip-rule="evenodd" d="M45.6378 5.14714C37.7256 8.10414 24.2218 13.1071 15.629 16.2641L0.0059528 22.0041L0.0029764 33.5071L0 45.0111L25.5472 54.4251C39.5987 59.6031 53.1035 64.5961 55.5591 65.5221L60.0236 67.2041L75.4016 61.4571C83.8594 58.2961 97.3653 53.3051 105.413 50.3671C119.388 45.2641 120.047 44.9011 120.047 42.2981V39.5721L114.839 41.5381C77.3442 55.6871 64.4177 60.1131 64.6876 58.7071C64.8821 57.6991 72.1712 54.5081 85.8189 49.4591C121.505 36.2541 119.511 37.1501 119.866 34.1531L120.18 31.4911L110.937 34.8821C105.853 36.7471 93.5198 41.2991 83.5301 44.9971C67.2155 51.0381 62.2708 52.2631 65.0507 49.5761C65.8087 48.8421 86.0888 41.0611 114.591 30.5671C118.626 29.0821 119.61 28.2521 119.865 26.1221C120.243 22.9751 120.419 22.9911 113.883 25.5901C106.076 28.6941 65.7095 43.5041 65.0547 43.5041C64.7432 43.5041 64.4882 42.8741 64.4882 42.1051C64.4882 41.2231 69.168 38.9761 77.1378 36.0311C84.0956 33.4591 96.6013 28.8301 104.93 25.7431C113.258 22.6561 119.732 19.8241 119.316 19.4501C118.899 19.0751 105.612 14.6001 89.7874 9.50514C73.963 4.40914 60.7925 0.135142 60.5197 0.0051424C60.2469 -0.123858 53.55 2.19014 45.6378 5.14714Z" fill="url(#paint0_linear_34_92)"/>
<defs>
<linearGradient id="paint0_linear_34_92" x1="60.0901" y1="0" x2="60.0901" y2="67.2041" gradientUnits="userSpaceOnUse">
<stop stop-color="#5D17EB"/>
<stop offset="1" stop-color="#350D85"/>
</linearGradient>
</defs>
</svg>
