<svg width="253" height="254" viewBox="0 0 253 254" fill="none" xmlns="http://www.w3.org/2000/svg">
<rect width="253" height="253.25" rx="126.5" fill="#E7E7E7"/>
<rect x="15" y="15" width="223" height="223.25" rx="111.5" fill="#E7E7E7"/>
<path d="M126.333 135.917C151.992 135.917 172.792 115.117 172.792 89.4583C172.792 63.8001 151.992 43 126.333 43C100.675 43 79.875 63.8001 79.875 89.4583C79.875 115.117 100.675 135.917 126.333 135.917Z" fill="#B6B6B6"/>
<path d="M200.667 210.25C200.667 190.536 192.835 171.629 178.895 157.688C164.955 143.748 146.048 135.917 126.333 135.917C106.619 135.917 87.7119 143.748 73.7717 157.688C59.8315 171.629 52 190.536 52 210.25" fill="#B6B6B6"/>
<path d="M126.333 135.917C151.992 135.917 172.792 115.117 172.792 89.4583C172.792 63.8001 151.992 43 126.333 43C100.675 43 79.875 63.8001 79.875 89.4583C79.875 115.117 100.675 135.917 126.333 135.917ZM126.333 135.917C146.048 135.917 164.955 143.748 178.895 157.688C192.835 171.629 200.667 190.536 200.667 210.25M126.333 135.917C106.619 135.917 87.7119 143.748 73.7717 157.688C59.8315 171.629 52 190.536 52 210.25" stroke="#B6B6B6" stroke-width="2" stroke-linecap="round" stroke-linejoin="round"/>
<path d="M52 210.25H200.667" stroke="#B6B6B6" stroke-width="2"/>
</svg>
