<svg width="48" height="48" viewBox="0 0 48 48" fill="none" xmlns="http://www.w3.org/2000/svg">
<path d="M40.5 24.3864C40.5 23.1809 40.3929 22.0218 40.1939 20.9091H24.3367V27.4927H33.398C33 29.61 31.8061 31.4027 30.0153 32.6082V36.8891H35.4796C38.6633 33.9218 40.5 29.5636 40.5 24.3864Z" fill="#4285F4"/>
<path d="M24.3367 41C28.8827 41 32.6939 39.4855 35.4796 36.8891L30.0153 32.6082C28.5153 33.6282 26.602 34.2464 24.3367 34.2464C19.9592 34.2464 16.2398 31.2636 14.9082 27.2455H9.30612V31.6345C12.0765 37.1827 17.7551 41 24.3367 41Z" fill="#34A853"/>
<path d="M14.9082 27.23C14.5714 26.21 14.3724 25.1282 14.3724 24C14.3724 22.8718 14.5714 21.79 14.9082 20.77V16.3809H9.30612C8.15816 18.6682 7.5 21.2491 7.5 24C7.5 26.7509 8.15816 29.3318 9.30612 31.6191L13.6684 28.1882L14.9082 27.23Z" fill="#FBBC05"/>
<path d="M24.3367 13.7691C26.8163 13.7691 29.0204 14.6345 30.7806 16.3036L35.602 11.4355C32.6786 8.68455 28.8827 7 24.3367 7C17.7551 7 12.0765 10.8173 9.30612 16.3809L14.9082 20.77C16.2398 16.7518 19.9592 13.7691 24.3367 13.7691Z" fill="#EA4335"/>
</svg>
