<svg width="49" height="49" viewBox="0 0 49 49" fill="none" xmlns="http://www.w3.org/2000/svg">
<path d="M24.4419 4.5C13.3959 4.5 4.44189 13.454 4.44189 24.5C4.44189 35.546 13.3959 44.5 24.4419 44.5C35.4879 44.5 44.4419 35.546 44.4419 24.5C44.4419 13.454 35.4879 4.5 24.4419 4.5Z" fill="url(#paint0_linear_138_80)"/>
<path d="M27.149 29.801H32.325L33.138 24.543H27.149V21.669C27.149 19.485 27.863 17.548 29.906 17.548H33.189V12.96C32.612 12.882 31.392 12.712 29.087 12.712C24.273 12.712 21.451 15.254 21.451 21.046V24.544H16.502V29.802H21.45V44.254C22.43 44.4 23.423 44.5 24.442 44.5C25.363 44.5 26.262 44.416 27.149 44.296V29.801Z" fill="white"/>
<defs>
<linearGradient id="paint0_linear_138_80" x1="10.4349" y1="10.493" x2="41.0569" y2="41.115" gradientUnits="userSpaceOnUse">
<stop stop-color="#2AA4F4"/>
<stop offset="1" stop-color="#007AD9"/>
</linearGradient>
</defs>
</svg>
