<svg width="33" height="34" viewBox="0 0 33 34" fill="none" xmlns="http://www.w3.org/2000/svg">
<path d="M33 17.3864C33 16.1809 32.8929 15.0218 32.6939 13.9091H16.8367V20.4927H25.898C25.5 22.61 24.3061 24.4027 22.5153 25.6082V29.8891H27.9796C31.1633 26.9218 33 22.5636 33 17.3864Z" fill="#4285F4"/>
<path d="M16.8367 34C21.3827 34 25.1939 32.4855 27.9796 29.8891L22.5153 25.6082C21.0153 26.6282 19.102 27.2464 16.8367 27.2464C12.4592 27.2464 8.7398 24.2636 7.40816 20.2455H1.80612V24.6345C4.57653 30.1827 10.2551 34 16.8367 34Z" fill="#34A853"/>
<path d="M7.40816 20.23C7.07143 19.21 6.87245 18.1282 6.87245 17C6.87245 15.8718 7.07143 14.79 7.40816 13.77V9.38091H1.80612C0.658163 11.6682 0 14.2491 0 17C0 19.7509 0.658163 22.3318 1.80612 24.6191L6.16837 21.1882L7.40816 20.23Z" fill="#FBBC05"/>
<path d="M16.8367 6.76909C19.3163 6.76909 21.5204 7.63455 23.2806 9.30364L28.102 4.43545C25.1786 1.68455 21.3827 0 16.8367 0C10.2551 0 4.57653 3.81727 1.80612 9.38091L7.40816 13.77C8.7398 9.75182 12.4592 6.76909 16.8367 6.76909Z" fill="#EA4335"/>
</svg>
