<svg width="49" height="48" viewBox="0 0 49 48" fill="none" xmlns="http://www.w3.org/2000/svg">
<path d="M42.5582 12.429C41.2352 13.015 39.8122 13.406 38.3112 13.591C39.8372 12.685 41.0112 11.24 41.5622 9.533C40.1342 10.37 38.5522 10.985 36.8692 11.309C35.5252 9.884 33.6082 9 31.4842 9C27.4042 9 24.0972 12.278 24.0972 16.32C24.0972 16.892 24.1642 17.449 24.2902 17.99C18.1522 17.682 12.7082 14.764 9.06618 10.336C8.42618 11.418 8.06618 12.685 8.06618 14.022C8.06618 16.563 9.36718 18.8 11.3512 20.118C10.1402 20.081 9.00018 19.744 8.00218 19.204C8.00218 19.226 8.00218 19.259 8.00218 19.29C8.00218 22.841 10.5492 25.798 13.9252 26.471C13.3082 26.64 12.6562 26.734 11.9842 26.734C11.5072 26.734 11.0422 26.68 10.5922 26.599C11.5322 29.501 14.2592 31.622 17.4902 31.685C14.9622 33.645 11.7782 34.819 8.31618 34.819C7.71818 34.819 7.13318 34.785 6.55518 34.715C9.82618 36.786 13.7102 38 17.8792 38C31.4642 38 38.8962 26.844 38.8962 17.166C38.8962 16.849 38.8862 16.533 38.8712 16.221C40.3212 15.197 41.5712 13.905 42.5582 12.429Z" fill="#03A9F4"/>
</svg>
